<mxfile host="app.diagrams.net" modified="2024-02-15T11:36:26.792Z" agent="Mozilla/5.0 (Windows NT 10.0; Win64; x64) AppleWebKit/537.36 (KHTML, like Gecko) Chrome/121.0.0.0 Safari/537.36" etag="dj44MJeS89CmBXXXrt3Z" version="23.1.4" type="device">
  <diagram name="Page-1" id="cYdDZedJjDhyUaQJyD2h">
    <mxGraphModel dx="1832" dy="1226" grid="0" gridSize="10" guides="1" tooltips="1" connect="1" arrows="1" fold="1" page="0" pageScale="1" pageWidth="827" pageHeight="1169" math="0" shadow="0">
      <root>
        <mxCell id="0" />
        <mxCell id="1" parent="0" />
        <mxCell id="YAFORRFHMQ-vOw9qNAOl-1" value="&lt;h1&gt;Project Structure for thunder store&lt;/h1&gt;" style="text;html=1;strokeColor=none;fillColor=none;spacing=5;spacingTop=-20;whiteSpace=wrap;overflow=hidden;rounded=0;fontSize=20;fontFamily=Architects Daughter;sketch=1;curveFitting=1;jiggle=2;shadow=1;" parent="1" vertex="1">
          <mxGeometry x="-220" y="-14" width="749" height="71" as="geometry" />
        </mxCell>
        <mxCell id="YAFORRFHMQ-vOw9qNAOl-14" style="edgeStyle=orthogonalEdgeStyle;rounded=0;sketch=1;hachureGap=4;jiggle=2;curveFitting=1;orthogonalLoop=1;jettySize=auto;html=1;fontFamily=Architects Daughter;fontSource=https%3A%2F%2Ffonts.googleapis.com%2Fcss%3Ffamily%3DArchitects%2BDaughter;fontSize=16;shadow=1;" parent="1" source="YAFORRFHMQ-vOw9qNAOl-4" target="YAFORRFHMQ-vOw9qNAOl-12" edge="1">
          <mxGeometry relative="1" as="geometry" />
        </mxCell>
        <mxCell id="YAFORRFHMQ-vOw9qNAOl-15" style="edgeStyle=orthogonalEdgeStyle;rounded=0;sketch=1;hachureGap=4;jiggle=2;curveFitting=1;orthogonalLoop=1;jettySize=auto;html=1;fontFamily=Architects Daughter;fontSource=https%3A%2F%2Ffonts.googleapis.com%2Fcss%3Ffamily%3DArchitects%2BDaughter;fontSize=16;shadow=1;" parent="1" source="YAFORRFHMQ-vOw9qNAOl-4" target="YAFORRFHMQ-vOw9qNAOl-7" edge="1">
          <mxGeometry relative="1" as="geometry" />
        </mxCell>
        <mxCell id="YAFORRFHMQ-vOw9qNAOl-20" style="edgeStyle=orthogonalEdgeStyle;rounded=0;sketch=1;hachureGap=4;jiggle=2;curveFitting=1;orthogonalLoop=1;jettySize=auto;html=1;fontFamily=Architects Daughter;fontSource=https%3A%2F%2Ffonts.googleapis.com%2Fcss%3Ffamily%3DArchitects%2BDaughter;fontSize=16;shadow=1;" parent="1" source="YAFORRFHMQ-vOw9qNAOl-4" target="YAFORRFHMQ-vOw9qNAOl-5" edge="1">
          <mxGeometry relative="1" as="geometry" />
        </mxCell>
        <mxCell id="YAFORRFHMQ-vOw9qNAOl-24" style="edgeStyle=orthogonalEdgeStyle;rounded=0;sketch=1;hachureGap=4;jiggle=2;curveFitting=1;orthogonalLoop=1;jettySize=auto;html=1;fontFamily=Architects Daughter;fontSource=https%3A%2F%2Ffonts.googleapis.com%2Fcss%3Ffamily%3DArchitects%2BDaughter;fontSize=16;shadow=1;" parent="1" source="YAFORRFHMQ-vOw9qNAOl-4" target="YAFORRFHMQ-vOw9qNAOl-9" edge="1">
          <mxGeometry relative="1" as="geometry" />
        </mxCell>
        <mxCell id="YAFORRFHMQ-vOw9qNAOl-41" style="edgeStyle=orthogonalEdgeStyle;rounded=0;sketch=1;hachureGap=4;jiggle=2;curveFitting=1;orthogonalLoop=1;jettySize=auto;html=1;fontFamily=Architects Daughter;fontSource=https%3A%2F%2Ffonts.googleapis.com%2Fcss%3Ffamily%3DArchitects%2BDaughter;fontSize=16;shadow=1;" parent="1" source="YAFORRFHMQ-vOw9qNAOl-4" target="YAFORRFHMQ-vOw9qNAOl-6" edge="1">
          <mxGeometry relative="1" as="geometry" />
        </mxCell>
        <mxCell id="YAFORRFHMQ-vOw9qNAOl-4" value="Home" style="rounded=0;whiteSpace=wrap;html=1;sketch=1;hachureGap=4;jiggle=2;curveFitting=1;fontFamily=Architects Daughter;fontSource=https%3A%2F%2Ffonts.googleapis.com%2Fcss%3Ffamily%3DArchitects%2BDaughter;fontSize=20;shadow=1;" parent="1" vertex="1">
          <mxGeometry x="-144" y="101" width="120" height="60" as="geometry" />
        </mxCell>
        <mxCell id="CVfxigR_intlSeXEakzV-9" style="edgeStyle=orthogonalEdgeStyle;rounded=0;orthogonalLoop=1;jettySize=auto;html=1;entryX=1;entryY=0.5;entryDx=0;entryDy=0;sketch=1;curveFitting=1;jiggle=2;shadow=1;" edge="1" parent="1" source="YAFORRFHMQ-vOw9qNAOl-5" target="YAFORRFHMQ-vOw9qNAOl-8">
          <mxGeometry relative="1" as="geometry">
            <Array as="points">
              <mxPoint x="358" y="442" />
            </Array>
          </mxGeometry>
        </mxCell>
        <mxCell id="YAFORRFHMQ-vOw9qNAOl-5" value="Product (single)" style="rounded=0;whiteSpace=wrap;html=1;sketch=1;hachureGap=4;jiggle=2;curveFitting=1;fontFamily=Architects Daughter;fontSource=https%3A%2F%2Ffonts.googleapis.com%2Fcss%3Ffamily%3DArchitects%2BDaughter;fontSize=20;shadow=1;" parent="1" vertex="1">
          <mxGeometry x="311" y="277" width="99" height="60" as="geometry" />
        </mxCell>
        <mxCell id="YAFORRFHMQ-vOw9qNAOl-6" value="Profile" style="rounded=0;whiteSpace=wrap;html=1;sketch=1;hachureGap=4;jiggle=2;curveFitting=1;fontFamily=Architects Daughter;fontSource=https%3A%2F%2Ffonts.googleapis.com%2Fcss%3Ffamily%3DArchitects%2BDaughter;fontSize=20;shadow=1;" parent="1" vertex="1">
          <mxGeometry x="-144" y="461" width="120" height="60" as="geometry" />
        </mxCell>
        <mxCell id="YAFORRFHMQ-vOw9qNAOl-21" style="edgeStyle=orthogonalEdgeStyle;rounded=0;sketch=1;hachureGap=4;jiggle=2;curveFitting=1;orthogonalLoop=1;jettySize=auto;html=1;fontFamily=Architects Daughter;fontSource=https%3A%2F%2Ffonts.googleapis.com%2Fcss%3Ffamily%3DArchitects%2BDaughter;fontSize=16;shadow=1;" parent="1" source="YAFORRFHMQ-vOw9qNAOl-7" target="YAFORRFHMQ-vOw9qNAOl-5" edge="1">
          <mxGeometry relative="1" as="geometry" />
        </mxCell>
        <mxCell id="YAFORRFHMQ-vOw9qNAOl-7" value="Search Page" style="rounded=0;whiteSpace=wrap;html=1;sketch=1;hachureGap=4;jiggle=2;curveFitting=1;fontFamily=Architects Daughter;fontSource=https%3A%2F%2Ffonts.googleapis.com%2Fcss%3Ffamily%3DArchitects%2BDaughter;fontSize=20;shadow=1;" parent="1" vertex="1">
          <mxGeometry x="64" y="277" width="107" height="60" as="geometry" />
        </mxCell>
        <mxCell id="CVfxigR_intlSeXEakzV-7" style="edgeStyle=orthogonalEdgeStyle;rounded=0;orthogonalLoop=1;jettySize=auto;html=1;entryX=0.5;entryY=0;entryDx=0;entryDy=0;sketch=1;curveFitting=1;jiggle=2;shadow=1;" edge="1" parent="1" source="YAFORRFHMQ-vOw9qNAOl-8" target="CVfxigR_intlSeXEakzV-6">
          <mxGeometry relative="1" as="geometry" />
        </mxCell>
        <mxCell id="YAFORRFHMQ-vOw9qNAOl-8" value="Cart" style="rounded=0;whiteSpace=wrap;html=1;sketch=1;hachureGap=4;jiggle=2;curveFitting=1;fontFamily=Architects Daughter;fontSource=https%3A%2F%2Ffonts.googleapis.com%2Fcss%3Ffamily%3DArchitects%2BDaughter;fontSize=20;shadow=1;" parent="1" vertex="1">
          <mxGeometry x="25" y="412" width="120" height="60" as="geometry" />
        </mxCell>
        <mxCell id="YAFORRFHMQ-vOw9qNAOl-9" value="Orders" style="rounded=0;whiteSpace=wrap;html=1;sketch=1;hachureGap=4;jiggle=2;curveFitting=1;fontFamily=Architects Daughter;fontSource=https%3A%2F%2Ffonts.googleapis.com%2Fcss%3Ffamily%3DArchitects%2BDaughter;fontSize=20;shadow=1;" parent="1" vertex="1">
          <mxGeometry x="532" y="277" width="120" height="60" as="geometry" />
        </mxCell>
        <mxCell id="YAFORRFHMQ-vOw9qNAOl-10" value="Page 404" style="rounded=0;whiteSpace=wrap;html=1;sketch=1;hachureGap=4;jiggle=2;curveFitting=1;fontFamily=Architects Daughter;fontSource=https%3A%2F%2Ffonts.googleapis.com%2Fcss%3Ffamily%3DArchitects%2BDaughter;fontSize=20;shadow=1;" parent="1" vertex="1">
          <mxGeometry x="-320.5" y="606" width="120" height="60" as="geometry" />
        </mxCell>
        <mxCell id="YAFORRFHMQ-vOw9qNAOl-13" value="" style="group;sketch=1;curveFitting=1;jiggle=2;shadow=1;" parent="1" vertex="1" connectable="0">
          <mxGeometry x="-368" y="218" width="215" height="215" as="geometry" />
        </mxCell>
        <mxCell id="YAFORRFHMQ-vOw9qNAOl-12" value="" style="ellipse;whiteSpace=wrap;html=1;aspect=fixed;sketch=1;hachureGap=4;jiggle=2;curveFitting=1;fontFamily=Architects Daughter;fontSource=https%3A%2F%2Ffonts.googleapis.com%2Fcss%3Ffamily%3DArchitects%2BDaughter;fontSize=20;fillColor=default;shadow=1;" parent="YAFORRFHMQ-vOw9qNAOl-13" vertex="1">
          <mxGeometry width="215" height="215" as="geometry" />
        </mxCell>
        <mxCell id="YAFORRFHMQ-vOw9qNAOl-2" value="Login" style="rounded=0;whiteSpace=wrap;html=1;sketch=1;hachureGap=4;jiggle=2;curveFitting=1;fontFamily=Architects Daughter;fontSource=https%3A%2F%2Ffonts.googleapis.com%2Fcss%3Ffamily%3DArchitects%2BDaughter;fontSize=20;fillColor=default;shadow=1;" parent="YAFORRFHMQ-vOw9qNAOl-13" vertex="1">
          <mxGeometry x="46" y="33" width="120" height="60" as="geometry" />
        </mxCell>
        <mxCell id="YAFORRFHMQ-vOw9qNAOl-3" value="Register" style="rounded=0;whiteSpace=wrap;html=1;sketch=1;hachureGap=4;jiggle=2;curveFitting=1;fontFamily=Architects Daughter;fontSource=https%3A%2F%2Ffonts.googleapis.com%2Fcss%3Ffamily%3DArchitects%2BDaughter;fontSize=20;fillColor=default;shadow=1;" parent="YAFORRFHMQ-vOw9qNAOl-13" vertex="1">
          <mxGeometry x="46" y="115" width="120" height="60" as="geometry" />
        </mxCell>
        <mxCell id="YAFORRFHMQ-vOw9qNAOl-16" value="navbar &lt;br&gt;search" style="text;html=1;align=center;verticalAlign=middle;resizable=0;points=[];autosize=1;strokeColor=none;fillColor=none;fontSize=20;fontFamily=Architects Daughter;sketch=1;curveFitting=1;jiggle=2;shadow=1;" parent="1" vertex="1">
          <mxGeometry x="195" y="275" width="83" height="60" as="geometry" />
        </mxCell>
        <mxCell id="YAFORRFHMQ-vOw9qNAOl-25" value="past &lt;br&gt;orders" style="text;html=1;align=center;verticalAlign=middle;resizable=0;points=[];autosize=1;strokeColor=none;fillColor=none;fontSize=20;fontFamily=Architects Daughter;sketch=1;curveFitting=1;jiggle=2;shadow=1;" parent="1" vertex="1">
          <mxGeometry x="645.5" y="199" width="82" height="60" as="geometry" />
        </mxCell>
        <mxCell id="CVfxigR_intlSeXEakzV-11" value="" style="edgeStyle=orthogonalEdgeStyle;rounded=0;orthogonalLoop=1;jettySize=auto;html=1;sketch=1;curveFitting=1;jiggle=2;shadow=1;" edge="1" parent="1" source="YAFORRFHMQ-vOw9qNAOl-26" target="CVfxigR_intlSeXEakzV-10">
          <mxGeometry relative="1" as="geometry" />
        </mxCell>
        <mxCell id="YAFORRFHMQ-vOw9qNAOl-26" value="Payment" style="rounded=0;whiteSpace=wrap;html=1;sketch=1;hachureGap=4;jiggle=2;curveFitting=1;fontFamily=Architects Daughter;fontSource=https%3A%2F%2Ffonts.googleapis.com%2Fcss%3Ffamily%3DArchitects%2BDaughter;fontSize=20;shadow=1;" parent="1" vertex="1">
          <mxGeometry x="205" y="567" width="120" height="60" as="geometry" />
        </mxCell>
        <mxCell id="YAFORRFHMQ-vOw9qNAOl-32" style="edgeStyle=orthogonalEdgeStyle;rounded=0;sketch=1;hachureGap=4;jiggle=2;curveFitting=1;orthogonalLoop=1;jettySize=auto;html=1;entryX=0.5;entryY=1;entryDx=0;entryDy=0;fontFamily=Architects Daughter;fontSource=https%3A%2F%2Ffonts.googleapis.com%2Fcss%3Ffamily%3DArchitects%2BDaughter;fontSize=16;shadow=1;" parent="1" source="YAFORRFHMQ-vOw9qNAOl-30" target="YAFORRFHMQ-vOw9qNAOl-9" edge="1">
          <mxGeometry relative="1" as="geometry" />
        </mxCell>
        <mxCell id="YAFORRFHMQ-vOw9qNAOl-30" value="Checkout" style="whiteSpace=wrap;html=1;sketch=1;hachureGap=4;jiggle=2;curveFitting=1;fontFamily=Architects Daughter;fontSource=https%3A%2F%2Ffonts.googleapis.com%2Fcss%3Ffamily%3DArchitects%2BDaughter;fontSize=20;shadow=1;" parent="1" vertex="1">
          <mxGeometry x="532" y="567" width="120" height="60" as="geometry" />
        </mxCell>
        <mxCell id="YAFORRFHMQ-vOw9qNAOl-36" value="" style="edgeStyle=orthogonalEdgeStyle;rounded=0;sketch=1;hachureGap=4;jiggle=2;curveFitting=1;orthogonalLoop=1;jettySize=auto;html=1;fontFamily=Architects Daughter;fontSource=https%3A%2F%2Ffonts.googleapis.com%2Fcss%3Ffamily%3DArchitects%2BDaughter;fontSize=16;shadow=1;" parent="1" source="YAFORRFHMQ-vOw9qNAOl-33" target="YAFORRFHMQ-vOw9qNAOl-34" edge="1">
          <mxGeometry relative="1" as="geometry" />
        </mxCell>
        <mxCell id="YAFORRFHMQ-vOw9qNAOl-33" value="On successful &lt;br&gt;payment" style="text;html=1;align=center;verticalAlign=middle;resizable=0;points=[];autosize=1;strokeColor=none;fillColor=none;fontSize=20;fontFamily=Architects Daughter;sketch=1;curveFitting=1;jiggle=2;shadow=1;" parent="1" vertex="1">
          <mxGeometry x="674" y="575" width="151" height="60" as="geometry" />
        </mxCell>
        <mxCell id="YAFORRFHMQ-vOw9qNAOl-34" value="Add to orders&lt;br&gt;&amp;nbsp;no redirect" style="text;html=1;align=center;verticalAlign=middle;resizable=0;points=[];autosize=1;strokeColor=none;fillColor=none;fontSize=20;fontFamily=Architects Daughter;sketch=1;curveFitting=1;jiggle=2;shadow=1;" parent="1" vertex="1">
          <mxGeometry x="674" y="349" width="151" height="60" as="geometry" />
        </mxCell>
        <mxCell id="YAFORRFHMQ-vOw9qNAOl-49" value="" style="endArrow=classic;html=1;rounded=0;sketch=1;hachureGap=4;jiggle=2;curveFitting=1;fontFamily=Architects Daughter;fontSource=https%3A%2F%2Ffonts.googleapis.com%2Fcss%3Ffamily%3DArchitects%2BDaughter;fontSize=16;entryX=0.5;entryY=0;entryDx=0;entryDy=0;shadow=1;" parent="1" target="YAFORRFHMQ-vOw9qNAOl-10" edge="1">
          <mxGeometry width="50" height="50" relative="1" as="geometry">
            <mxPoint x="-262.5" y="522" as="sourcePoint" />
            <mxPoint x="-226.5" y="497" as="targetPoint" />
          </mxGeometry>
        </mxCell>
        <mxCell id="YAFORRFHMQ-vOw9qNAOl-50" value="unhandled&lt;br&gt;route" style="text;html=1;align=center;verticalAlign=middle;resizable=0;points=[];autosize=1;strokeColor=none;fillColor=none;fontSize=20;fontFamily=Architects Daughter;sketch=1;curveFitting=1;jiggle=2;shadow=1;" parent="1" vertex="1">
          <mxGeometry x="-312" y="469" width="103" height="60" as="geometry" />
        </mxCell>
        <mxCell id="CVfxigR_intlSeXEakzV-3" style="edgeStyle=orthogonalEdgeStyle;rounded=0;orthogonalLoop=1;jettySize=auto;html=1;entryX=0.25;entryY=1;entryDx=0;entryDy=0;sketch=1;curveFitting=1;jiggle=2;shadow=1;" edge="1" parent="1" source="YAFORRFHMQ-vOw9qNAOl-12" target="YAFORRFHMQ-vOw9qNAOl-4">
          <mxGeometry relative="1" as="geometry" />
        </mxCell>
        <mxCell id="CVfxigR_intlSeXEakzV-8" value="" style="edgeStyle=orthogonalEdgeStyle;rounded=0;orthogonalLoop=1;jettySize=auto;html=1;sketch=1;curveFitting=1;jiggle=2;shadow=1;" edge="1" parent="1" source="CVfxigR_intlSeXEakzV-6" target="YAFORRFHMQ-vOw9qNAOl-26">
          <mxGeometry relative="1" as="geometry" />
        </mxCell>
        <mxCell id="CVfxigR_intlSeXEakzV-6" value="User details" style="rounded=0;whiteSpace=wrap;html=1;sketch=1;hachureGap=4;jiggle=2;curveFitting=1;fontFamily=Architects Daughter;fontSource=https%3A%2F%2Ffonts.googleapis.com%2Fcss%3Ffamily%3DArchitects%2BDaughter;fontSize=20;shadow=1;" vertex="1" parent="1">
          <mxGeometry x="25" y="567" width="120" height="60" as="geometry" />
        </mxCell>
        <mxCell id="CVfxigR_intlSeXEakzV-13" value="" style="edgeStyle=orthogonalEdgeStyle;rounded=0;orthogonalLoop=1;jettySize=auto;html=1;sketch=1;curveFitting=1;jiggle=2;shadow=1;" edge="1" parent="1" source="CVfxigR_intlSeXEakzV-10" target="YAFORRFHMQ-vOw9qNAOl-30">
          <mxGeometry relative="1" as="geometry" />
        </mxCell>
        <mxCell id="CVfxigR_intlSeXEakzV-10" value="Review" style="rounded=0;whiteSpace=wrap;html=1;sketch=1;hachureGap=4;jiggle=2;curveFitting=1;fontFamily=Architects Daughter;fontSource=https%3A%2F%2Ffonts.googleapis.com%2Fcss%3Ffamily%3DArchitects%2BDaughter;fontSize=20;shadow=1;" vertex="1" parent="1">
          <mxGeometry x="373" y="567" width="120" height="60" as="geometry" />
        </mxCell>
      </root>
    </mxGraphModel>
  </diagram>
</mxfile>
